REM DIRINDEX 1\2,1\3,1\4,1\5
REM DIRNAME folder01,folder02,folder03,folder04,folder05
TITLE ""
FILE "1800_150.mp3" MP3
  TRACK 01 AUDIO
    TITLE "2:cjc044_4662"
    INDEX 01 00:00:00
  TRACK 02 AUDIO
    TITLE "0:"
    INDEX 01 00:01:11
  TRACK 03 AUDIO
    TITLE "3:cjc044_4663"
    INDEX 01 00:01:73
  TRACK 04 AUDIO
    TITLE "0:"
    INDEX 01 00:03:17
  TRACK 05 AUDIO
    TITLE "4:cjc044_4664"
    INDEX 01 00:04:09
  TRACK 06 AUDIO
    TITLE "0:"
    INDEX 01 00:05:28
  TRACK 07 AUDIO
    TITLE "2:cjc044_4665"
    INDEX 01 00:07:09
  TRACK 08 AUDIO
    TITLE "0:"
    INDEX 01 00:08:44
  TRACK 09 AUDIO
    TITLE "3:cjc044_4666"
    INDEX 01 00:09:36
  TRACK 10 AUDIO
    TITLE "0:"
    INDEX 01 00:10:23
  TRACK 11 AUDIO
    TITLE "4:cjc044_4667"
    INDEX 01 00:11:19
  TRACK 12 AUDIO
    TITLE "0:"
    INDEX 01 00:12:52
  TRACK 13 AUDIO
    TITLE "2:cjc044_4668"
    INDEX 01 00:14:35
  TRACK 14 AUDIO
    TITLE "0:"
    INDEX 01 00:15:42
  TRACK 15 AUDIO
    TITLE "3:cjc044_4669"
    INDEX 01 00:16:28
  TRACK 16 AUDIO
    TITLE "0:"
    INDEX 01 00:17:08
  TRACK 17 AUDIO
    TITLE "4:cjc044_4670"
    INDEX 01 00:17:67
  TRACK 18 AUDIO
    TITLE "0:"
    INDEX 01 00:19:01
  TRACK 19 AUDIO
    TITLE "2:cjc044_4671"
    INDEX 01 00:20:63
  TRACK 20 AUDIO
    TITLE "0:"
    INDEX 01 00:22:05
  TRACK 21 AUDIO
    TITLE "3:cjc044_4672"
    INDEX 01 00:22:74
  TRACK 22 AUDIO
    TITLE "0:"
    INDEX 01 00:23:73
  TRACK 23 AUDIO
    TITLE "4:cjc044_4673"
    INDEX 01 00:24:69
  TRACK 24 AUDIO
    TITLE "0:"
    INDEX 01 00:26:09
  TRACK 25 AUDIO
    TITLE "2:cjc044_4674"
    INDEX 01 00:27:69
  TRACK 26 AUDIO
    TITLE "0:"
    INDEX 01 00:29:09
  TRACK 27 AUDIO
    TITLE "3:cjc044_4675"
    INDEX 01 00:29:70
  TRACK 28 AUDIO
    TITLE "0:"
    INDEX 01 00:30:71
  TRACK 29 AUDIO
    TITLE "4:cjc044_4676"
    INDEX 01 00:31:67
  TRACK 30 AUDIO
    TITLE "0:"
    INDEX 01 00:33:07
  TRACK 31 AUDIO
    TITLE "2:cjc044_4677"
    INDEX 01 00:34:67
  TRACK 32 AUDIO
    TITLE "0:"
    INDEX 01 00:36:17
  TRACK 33 AUDIO
    TITLE "3:cjc044_4678"
    INDEX 01 00:37:05
  TRACK 34 AUDIO
    TITLE "0:"
    INDEX 01 00:38:06
  TRACK 35 AUDIO
    TITLE "4:cjc044_4679"
    INDEX 01 00:38:71
  TRACK 36 AUDIO
    TITLE "0:"
    INDEX 01 00:40:19
  TRACK 37 AUDIO
    TITLE "2:cjc044_4680"
    INDEX 01 00:42:02
  TRACK 38 AUDIO
    TITLE "0:"
    INDEX 01 00:43:27
  TRACK 39 AUDIO
    TITLE "3:cjc044_4681"
    INDEX 01 00:44:11
  TRACK 40 AUDIO
    TITLE "0:"
    INDEX 01 00:45:12
  TRACK 41 AUDIO
    TITLE "4:cjc044_4682"
    INDEX 01 00:45:67
  TRACK 42 AUDIO
    TITLE "0:"
    INDEX 01 00:47:19
  TRACK 43 AUDIO
    TITLE "2:cjc044_4683"
    INDEX 01 00:49:02
  TRACK 44 AUDIO
    TITLE "0:"
    INDEX 01 00:50:37
  TRACK 45 AUDIO
    TITLE "3:cjc044_4684"
    INDEX 01 00:51:28
  TRACK 46 AUDIO
    TITLE "0:"
    INDEX 01 00:52:43
  TRACK 47 AUDIO
    TITLE "4:cjc044_4685"
    INDEX 01 00:53:33
  TRACK 48 AUDIO
    TITLE "0:"
    INDEX 01 00:54:70
  TRACK 49 AUDIO
    TITLE "2:cjc044_4686"
    INDEX 01 00:56:57
  TRACK 50 AUDIO
    TITLE "0:"
    INDEX 01 00:57:60
  TRACK 51 AUDIO
    TITLE "3:cjc044_4687"
    INDEX 01 00:58:52
  TRACK 52 AUDIO
    TITLE "0:"
    INDEX 01 00:59:53
  TRACK 53 AUDIO
    TITLE "4:cjc044_4688"
    INDEX 01 01:00:47
  TRACK 54 AUDIO
    TITLE "0:"
    INDEX 01 01:01:50
  TRACK 55 AUDIO
    TITLE "2:cjc044_4689"
    INDEX 01 01:03:33
  TRACK 56 AUDIO
    TITLE "0:"
    INDEX 01 01:04:58
  TRACK 57 AUDIO
    TITLE "3:cjc044_4690"
    INDEX 01 01:05:36
  TRACK 58 AUDIO
    TITLE "0:"
    INDEX 01 01:06:49
  TRACK 59 AUDIO
    TITLE "4:cjc044_4691"
    INDEX 01 01:07:33
  TRACK 60 AUDIO
    TITLE "0:"
    INDEX 01 01:08:56
  TRACK 61 AUDIO
    TITLE "2:cjc044_4692"
    INDEX 01 01:10:39
  TRACK 62 AUDIO
    TITLE "0:"
    INDEX 01 01:11:62
  TRACK 63 AUDIO
    TITLE "3:cjc044_4693"
    INDEX 01 01:12:50
  TRACK 64 AUDIO
    TITLE "0:"
    INDEX 01 01:14:00
  TRACK 65 AUDIO
    TITLE "4:cjc044_4694"
    INDEX 01 01:14:68
  TRACK 66 AUDIO
    TITLE "0:"
    INDEX 01 01:16:18
  TRACK 67 AUDIO
    TITLE "2:cjc044_4695"
    INDEX 01 01:17:69
  TRACK 68 AUDIO
    TITLE "0:"
    INDEX 01 01:19:05
  TRACK 69 AUDIO
    TITLE "3:cjc044_4696"
    INDEX 01 01:19:56
  TRACK 70 AUDIO
    TITLE "0:"
    INDEX 01 01:20:69
  TRACK 71 AUDIO
    TITLE "4:cjc044_4697"
    INDEX 01 01:21:47
  TRACK 72 AUDIO
    TITLE "0:"
    INDEX 01 01:22:58
  TRACK 73 AUDIO
    TITLE "2:cjc044_4698"
    INDEX 01 01:24:37
  TRACK 74 AUDIO
    TITLE "0:"
    INDEX 01 01:25:41
  TRACK 75 AUDIO
    TITLE "3:cjc044_4699"
    INDEX 01 01:26:30
  TRACK 76 AUDIO
    TITLE "0:"
    INDEX 01 01:27:18
  TRACK 77 AUDIO
    TITLE "4:cjc044_4700"
    INDEX 01 01:28:12
  TRACK 78 AUDIO
    TITLE "0:"
    INDEX 01 01:29:13
  TRACK 79 AUDIO
    TITLE "2:cjc044_4701"
    INDEX 01 01:30:71
  TRACK 80 AUDIO
    TITLE "0:"
    INDEX 01 01:32:23
  TRACK 81 AUDIO
    TITLE "3:cjc044_4702"
    INDEX 01 01:33:03
  TRACK 82 AUDIO
    TITLE "0:"
    INDEX 01 01:34:24
  TRACK 83 AUDIO
    TITLE "4:cjc044_4703"
    INDEX 01 01:35:04
  TRACK 84 AUDIO
    TITLE "0:"
    INDEX 01 01:36:29
  TRACK 85 AUDIO
    TITLE "2:cjc044_4704"
    INDEX 01 01:38:10
  TRACK 86 AUDIO
    TITLE "0:"
    INDEX 01 01:39:37
  TRACK 87 AUDIO
    TITLE "3:cjc044_4705"
    INDEX 01 01:40:21
  TRACK 88 AUDIO
    TITLE "0:"
    INDEX 01 01:41:26
  TRACK 89 AUDIO
    TITLE "4:cjc044_4706"
    INDEX 01 01:42:08
  TRACK 90 AUDIO
    TITLE "0:"
    INDEX 01 01:43:35
  TRACK 91 AUDIO
    TITLE "2:cjc044_4707"
    INDEX 01 01:45:12
  TRACK 92 AUDIO
    TITLE "0:"
    INDEX 01 01:46:57
  TRACK 93 AUDIO
    TITLE "3:cjc044_4708"
    INDEX 01 01:47:46
  TRACK 94 AUDIO
    TITLE "0:"
    INDEX 01 01:48:61
  TRACK 95 AUDIO
    TITLE "4:cjc044_4709"
    INDEX 01 01:49:55
  TRACK 96 AUDIO
    TITLE "0:"
    INDEX 01 01:51:21
  TRACK 97 AUDIO
    TITLE "2:cjc044_4710"
    INDEX 01 01:53:06
  TRACK 98 AUDIO
    TITLE "0:"
    INDEX 01 01:54:23
  TRACK 99 AUDIO
    TITLE "3:cjc044_4711"
    INDEX 01 01:55:09
  TRACK 100 AUDIO
    TITLE "0:"
    INDEX 01 01:56:10
  TRACK 101 AUDIO
    TITLE "4:cjc044_4712"
    INDEX 01 01:57:02
  TRACK 102 AUDIO
    TITLE "0:"
    INDEX 01 01:58:21
